<?xml version="1.0" encoding="utf-8"?>
<!-- Generator: Adobe Illustrator 19.1.0, SVG Export Plug-In . SVG Version: 6.00 Build 0)  -->
<svg version="1.1" xmlns="http://www.w3.org/2000/svg" xmlns:xlink="http://www.w3.org/1999/xlink" x="0px" y="0px"
	 viewBox="0 0 681.1 105" style="enable-background:new 0 0 681.1 105;" xml:space="preserve">
<style type="text/css">
	.st0{display:none;}
	.st1{display:inline;fill:#080808;}
	.st2{display:inline;fill:none;stroke:#FFFFFF;stroke-width:5;stroke-linecap:round;stroke-linejoin:round;stroke-miterlimit:10;}
	.st3{display:inline;}
	.st4{fill:none;stroke:#FFFFFF;stroke-width:5;stroke-linecap:round;stroke-linejoin:round;stroke-miterlimit:10;}
	.st5{display:inline;fill:none;stroke:#F4C67F;stroke-width:5;stroke-linecap:round;stroke-linejoin:round;stroke-miterlimit:10;}
	.st6{display:inline;fill:none;stroke:#191919;stroke-width:5;stroke-linecap:round;stroke-linejoin:round;stroke-miterlimit:10;}
	.st7{fill:none;stroke:#191919;stroke-width:5;stroke-linecap:round;stroke-linejoin:round;stroke-miterlimit:10;}
	.st8{display:inline;fill:none;stroke:#FFFFFF;stroke-width:20;stroke-linecap:round;stroke-linejoin:round;stroke-miterlimit:10;}
	.st9{display:inline;fill:none;stroke:#F4C67F;stroke-width:20;stroke-linecap:round;stroke-linejoin:round;stroke-miterlimit:10;}
	.st10{display:inline;fill:#FFFFFF;}
	.st11{display:inline;fill:#F4C67F;}
</style>
<g id="Layer_2" class="st0">
	<rect x="-231.8" y="-228.5" class="st1" width="1280" height="720"/>
</g>
<g id="DatUong" class="st0">
	<polygon class="st2" points="-2.5,81.5 -2.5,181.5 97.5,131.5 	"/>
	<polyline class="st2" points="107.1,181.5 157.1,81.5 207.1,181.5 	"/>
	<g class="st3">
		<line class="st4" x1="215.6" y1="81.5" x2="315.6" y2="81.5"/>
		<line class="st4" x1="265.6" y1="81.5" x2="265.6" y2="181.5"/>
	</g>
	<g class="st3">
		<line class="st4" x1="-267.9" y1="-47.5" x2="-167.9" y2="-47.5"/>
		<line class="st4" x1="-217.9" y1="-47.5" x2="-217.9" y2="52.5"/>
	</g>
	<polyline class="st5" points="372.3,81.5 372.3,181.5 472.3,181.5 472.3,81.5 	"/>
	<polyline class="st5" points="602.8,181.5 602.8,81.5 702.8,181.5 702.8,81.5 	"/>
	<rect x="487.9" y="81.5" class="st5" width="100" height="100"/>
	<polyline class="st5" points="818.8,81.5 718.8,81.5 718.8,181.5 818.8,181.5 818.8,131.5 768.8,131.5 	"/>
</g>
<g id="Layer_7" class="st0">
	<polygon class="st2" points="-2.5,81.5 -2.5,181.5 97.5,131.5 	"/>
	<polyline class="st2" points="107.1,181.5 157.1,81.5 207.1,181.5 	"/>
	<polyline class="st2" points="-37.4,52.5 12.6,-47.5 62.6,52.5 	"/>
	<polyline class="st2" points="372.3,-3.5 422.3,-103.5 472.3,-3.5 	"/>
	<g class="st3">
		<line class="st4" x1="215.6" y1="81.5" x2="315.6" y2="81.5"/>
		<line class="st4" x1="265.6" y1="81.5" x2="265.6" y2="181.5"/>
	</g>
	<g class="st3">
		<line class="st4" x1="833.4" y1="-103.5" x2="933.4" y2="-103.5"/>
		<line class="st4" x1="883.4" y1="-103.5" x2="883.4" y2="-3.5"/>
	</g>
	<polyline class="st5" points="372.3,81.5 372.3,181.5 472.3,181.5 472.3,81.5 	"/>
	<polyline class="st5" points="326.3,-220.5 226.3,-220.5 226.3,-120.5 326.3,-120.5 	"/>
	<polyline class="st5" points="372.3,195.5 372.3,295.5 472.3,295.5 472.3,195.5 	"/>
	<polyline class="st5" points="718.5,195.5 718.5,245.5 718.5,295.5 	"/>
	<polyline class="st5" points="602.8,295.5 602.8,245.5 602.8,195.5 702.8,195.5 703,245.5 602.8,245.5 703,295.5 	"/>
	<polyline class="st2" points="718.5,-103.5 718.5,-3.5 818.5,-3.5 818.5,-103.5 	"/>
	<polyline class="st5" points="602.8,181.5 602.8,81.5 702.8,181.5 702.8,81.5 	"/>
	<rect x="487.9" y="81.5" class="st5" width="100" height="100"/>
	<rect x="487.9" y="195.5" class="st5" width="100" height="100"/>
	<rect x="602.8" y="-103.5" class="st2" width="100" height="100"/>
	<polyline class="st5" points="818.8,81.5 718.8,81.5 718.8,181.5 818.8,181.5 818.8,131.5 768.8,131.5 	"/>
	<line class="st2" x1="-52.6" y1="52.5" x2="-52.6" y2="4.5"/>
	<line class="st2" x1="-152.6" y1="-47.5" x2="-152.6" y2="52.5"/>
	<polyline class="st2" points="-152.6,2.5 -52.6,2.5 -52.6,-47.5 	"/>
	<polyline class="st2" points="372.3,-120.5 422.3,-220.5 472.3,-120.5 	"/>
	<g class="st3">
		<line class="st4" x1="833.4" y1="-220.5" x2="933.4" y2="-220.5"/>
		<line class="st4" x1="883.4" y1="-220.5" x2="883.4" y2="-120.5"/>
	</g>
	<polyline class="st2" points="718.5,-220.5 718.5,-120.5 818.5,-120.5 818.5,-220.5 	"/>
	<rect x="602.8" y="-220.5" class="st2" width="100" height="100"/>
	<polyline class="st2" points="487.6,-170.5 587.9,-170.5 587.6,-120.5 487.6,-120.5 487.6,-220.5 537.9,-220.5 537.6,-170.5 	"/>
	<path class="st2" d="M487.6-170.5"/>
	<line class="st5" x1="422.3" y1="295.5" x2="422.3" y2="245.5"/>
	<polyline class="st5" points="818.8,295.5 718.5,245.5 818.5,195.5 	"/>
	<polyline class="st5" points="372.3,426.1 372.3,526.1 472.3,526.1 472.3,426.1 	"/>
	<polyline class="st6" points="192.9,-47.5 192.9,2.5 192.9,52.5 	"/>
	<polyline class="st5" points="602.8,526.1 602.8,476.1 602.8,426.1 702.8,426.1 703,476.1 602.8,476.1 703,526.1 	"/>
	<rect x="487.9" y="426.1" class="st5" width="100" height="100"/>
	<line class="st5" x1="422.3" y1="526.1" x2="422.3" y2="476.1"/>
	<polyline class="st6" points="293.3,52.5 192.9,2.5 292.9,-47.5 	"/>
	<polyline class="st5" points="372.3,311.5 372.3,411.5 472.3,411.5 472.3,311.5 	"/>
	<polyline class="st5" points="718.5,311.5 718.5,361.5 718.5,411.5 	"/>
	<rect x="487.9" y="311.5" class="st5" width="100" height="100"/>
	<line class="st5" x1="422.3" y1="411.5" x2="422.3" y2="361.5"/>
	<polyline class="st5" points="818.8,411.5 718.5,361.5 818.5,311.5 	"/>
	<polyline class="st5" points="703,411.5 602.6,361.5 702.6,311.5 602.6,311.5 602.6,361.5 602.6,411.5 	"/>
	<polyline class="st6" points="178.6,-47.5 178.6,52.5 78.6,-47.5 78.6,52.5 	"/>
	<polyline class="st6" points="408.2,-47.5 308.2,-47.5 408.2,52.5 308.2,52.5 	"/>
</g>
<g id="Layer_9">
	<g>
		<line class="st4" x1="2.5" y1="2.5" x2="102.5" y2="2.5"/>
		<line class="st4" x1="52.5" y1="2.5" x2="52.5" y2="102.5"/>
	</g>
	<polyline class="st4" points="233,102.5 283,2.5 333,102.5 	"/>
	<line class="st4" x1="217.8" y1="102.5" x2="217.8" y2="54.5"/>
	<line class="st4" x1="117.8" y1="2.5" x2="117.8" y2="102.5"/>
	<polyline class="st4" points="117.8,52.5 217.8,52.5 217.8,2.5 	"/>
	<polyline class="st7" points="463.3,2.5 463.3,52.5 463.3,102.5 	"/>
	<polyline class="st7" points="563.7,102.5 463.3,52.5 563.3,2.5 	"/>
	<polyline class="st7" points="449,2.5 449,102.5 349,2.5 349,102.5 	"/>
	<polyline class="st7" points="678.6,2.5 578.6,2.5 678.6,102.5 578.6,102.5 	"/>
</g>
<g id="Layer_8" class="st0">
	<polyline class="st2" points="125.7,-200.5 25.7,-200.5 25.7,-100.5 125.7,-100.5 	"/>
	<polyline class="st2" points="702.8,-200.5 602.8,-200.5 602.8,-100.5 702.8,-100.5 	"/>
	<polyline class="st6" points="372.3,77.5 372.3,177.5 472.3,177.5 472.3,77.5 	"/>
	<polyline class="st6" points="718.5,77.5 718.5,127.5 718.5,177.5 	"/>
	<polyline class="st6" points="602.8,177.5 602.8,127.5 602.8,77.5 702.8,77.5 703,127.5 602.8,127.5 703,177.5 	"/>
	<polyline class="st2" points="256.3,-100.5 256.3,-200.5 356.3,-100.5 356.3,-200.5 	"/>
	<rect x="141.4" y="-200.5" class="st2" width="100" height="100"/>
	<rect x="487.9" y="77.5" class="st6" width="100" height="100"/>
	<polyline class="st5" points="818.8,-41.5 718.8,-41.5 718.8,58.5 818.8,58.5 818.8,8.5 768.8,8.5 	"/>
	<line class="st6" x1="422.3" y1="177.5" x2="422.3" y2="127.5"/>
	<polyline class="st6" points="818.8,177.5 718.5,127.5 818.5,77.5 	"/>
	<polyline class="st6" points="372.3,308.1 372.3,408.1 472.3,408.1 472.3,308.1 	"/>
	<polyline class="st6" points="718.5,308.1 718.5,358.1 718.5,408.1 	"/>
	<polyline class="st6" points="602.8,408.1 602.6,358.1 602.8,308.1 702.8,308.1 703,358.1 652.8,358.1 703,408.1 	"/>
	<rect x="487.9" y="308.1" class="st6" width="100" height="100"/>
	<line class="st6" x1="422.3" y1="408.1" x2="422.3" y2="358.1"/>
	<polyline class="st6" points="818.8,408.1 718.5,358.1 818.5,308.1 	"/>
	<polyline class="st6" points="372.3,193.5 372.3,293.5 472.3,293.5 472.3,193.5 	"/>
	<polyline class="st6" points="718.5,193.5 718.5,243.5 718.5,293.5 	"/>
	<rect x="487.9" y="193.5" class="st6" width="100" height="100"/>
	<line class="st6" x1="422.3" y1="293.5" x2="422.3" y2="243.5"/>
	<polyline class="st6" points="818.8,293.5 718.5,243.5 818.5,193.5 	"/>
	<polyline class="st6" points="703,293.5 602.6,243.5 702.6,193.5 602.6,193.5 602.6,243.5 602.6,293.5 	"/>
	<polyline class="st2" points="487.7,-100.5 537.7,-200.5 587.7,-100.5 	"/>
	<g class="st3">
		<line class="st4" x1="372.1" y1="-200.5" x2="472.1" y2="-200.5"/>
		<line class="st4" x1="422.1" y1="-200.5" x2="422.1" y2="-100.5"/>
	</g>
	<g class="st3">
		<line class="st4" x1="718.6" y1="-200.5" x2="818.6" y2="-200.5"/>
		<line class="st4" x1="768.6" y1="-200.5" x2="768.6" y2="-100.5"/>
	</g>
</g>
<g id="D" class="st0">
	<polygon class="st8" points="-2.5,280.5 -2.5,380.5 97.5,330.5 	"/>
</g>
<g id="U" class="st0">
	<polyline class="st9" points="141.2,285.5 141.2,385.5 241.2,385.5 241.2,285.5 	"/>
</g>
<g id="whitedot" class="st0">
	<circle class="st10" cx="422.3" cy="290.5" r="10"/>
</g>
<g id="yellowdot" class="st0">
	<circle class="st11" cx="497.9" cy="320.5" r="10"/>
</g>
</svg>
